<mxfile host="app.diagrams.net" modified="2022-05-28T16:08:33.201Z" agent="5.0 (X11)" etag="Yr67qCvp2bD_CjEpYDkW" version="18.0.3" type="github" pages="2">
  <diagram id="N75gDdKAZUL7_3De1Yka" name="Datapath">
    <mxGraphModel dx="1422" dy="755" grid="1" gridSize="10" guides="1" tooltips="1" connect="1" arrows="1" fold="1" page="1" pageScale="1" pageWidth="850" pageHeight="1100" math="0" shadow="0">
      <root>
        <mxCell id="0" />
        <mxCell id="1" parent="0" />
        <mxCell id="TyVjdNYPD2JeJ7O1mxKk-13" style="edgeStyle=orthogonalEdgeStyle;rounded=0;orthogonalLoop=1;jettySize=auto;html=1;exitX=0.5;exitY=1;exitDx=0;exitDy=0;entryX=0.25;entryY=0;entryDx=0;entryDy=0;fontFamily=Helvetica;fontSize=24;fontStyle=1" parent="1" source="TyVjdNYPD2JeJ7O1mxKk-1" target="TyVjdNYPD2JeJ7O1mxKk-3" edge="1">
          <mxGeometry relative="1" as="geometry" />
        </mxCell>
        <mxCell id="TyVjdNYPD2JeJ7O1mxKk-1" value="&lt;div style=&quot;font-size: 24px&quot;&gt;&lt;p style=&quot;font-size: 24px;&quot;&gt;&lt;font style=&quot;font-size: 24px;&quot; face=&quot;Helvetica&quot;&gt;A&lt;/font&gt;&lt;/p&gt;&lt;/div&gt;" style="rounded=1;whiteSpace=wrap;html=1;fillColor=#d5e8d4;strokeColor=#82b366;fontSize=24;" parent="1" vertex="1">
          <mxGeometry x="200" y="200" width="160" height="40" as="geometry" />
        </mxCell>
        <mxCell id="TyVjdNYPD2JeJ7O1mxKk-12" style="edgeStyle=orthogonalEdgeStyle;rounded=0;orthogonalLoop=1;jettySize=auto;html=1;entryX=0.75;entryY=0;entryDx=0;entryDy=0;fontFamily=Helvetica;fontSize=24;" parent="1" source="TyVjdNYPD2JeJ7O1mxKk-2" target="TyVjdNYPD2JeJ7O1mxKk-3" edge="1">
          <mxGeometry relative="1" as="geometry" />
        </mxCell>
        <mxCell id="TyVjdNYPD2JeJ7O1mxKk-2" value="&lt;div style=&quot;font-size: 24px&quot;&gt;&lt;p style=&quot;font-size: 24px;&quot;&gt;B&lt;br style=&quot;font-size: 24px;&quot;&gt;&lt;/p&gt;&lt;/div&gt;" style="rounded=1;whiteSpace=wrap;html=1;fillColor=#d5e8d4;strokeColor=#82b366;fontSize=24;fontFamily=Helvetica;" parent="1" vertex="1">
          <mxGeometry x="480" y="200" width="160" height="40" as="geometry" />
        </mxCell>
        <mxCell id="TyVjdNYPD2JeJ7O1mxKk-14" style="edgeStyle=orthogonalEdgeStyle;rounded=0;orthogonalLoop=1;jettySize=auto;html=1;exitX=0.25;exitY=1;exitDx=0;exitDy=0;fontFamily=Helvetica;fontSize=24;jumpStyle=gap;" parent="1" source="TyVjdNYPD2JeJ7O1mxKk-3" target="TyVjdNYPD2JeJ7O1mxKk-4" edge="1">
          <mxGeometry relative="1" as="geometry">
            <Array as="points">
              <mxPoint x="380" y="420" />
              <mxPoint x="200" y="420" />
            </Array>
          </mxGeometry>
        </mxCell>
        <mxCell id="TyVjdNYPD2JeJ7O1mxKk-15" style="edgeStyle=orthogonalEdgeStyle;rounded=0;orthogonalLoop=1;jettySize=auto;html=1;exitX=0.25;exitY=1;exitDx=0;exitDy=0;fontFamily=Helvetica;fontSize=24;jumpStyle=gap;" parent="1" source="TyVjdNYPD2JeJ7O1mxKk-3" target="TyVjdNYPD2JeJ7O1mxKk-8" edge="1">
          <mxGeometry relative="1" as="geometry">
            <Array as="points">
              <mxPoint x="380" y="420" />
              <mxPoint x="640" y="420" />
            </Array>
          </mxGeometry>
        </mxCell>
        <mxCell id="TyVjdNYPD2JeJ7O1mxKk-16" style="edgeStyle=orthogonalEdgeStyle;rounded=0;orthogonalLoop=1;jettySize=auto;html=1;exitX=0.25;exitY=1;exitDx=0;exitDy=0;entryX=0.25;entryY=0;entryDx=0;entryDy=0;fontFamily=Helvetica;fontSize=24;jumpStyle=gap;" parent="1" source="TyVjdNYPD2JeJ7O1mxKk-3" target="TyVjdNYPD2JeJ7O1mxKk-5" edge="1">
          <mxGeometry relative="1" as="geometry">
            <Array as="points">
              <mxPoint x="380" y="420" />
              <mxPoint x="310" y="420" />
            </Array>
          </mxGeometry>
        </mxCell>
        <mxCell id="TyVjdNYPD2JeJ7O1mxKk-17" style="edgeStyle=orthogonalEdgeStyle;rounded=0;orthogonalLoop=1;jettySize=auto;html=1;exitX=0.25;exitY=1;exitDx=0;exitDy=0;entryX=0.25;entryY=0;entryDx=0;entryDy=0;fontFamily=Helvetica;fontSize=24;jumpStyle=gap;" parent="1" source="TyVjdNYPD2JeJ7O1mxKk-3" target="TyVjdNYPD2JeJ7O1mxKk-6" edge="1">
          <mxGeometry relative="1" as="geometry">
            <Array as="points">
              <mxPoint x="380" y="420" />
              <mxPoint x="470" y="420" />
            </Array>
          </mxGeometry>
        </mxCell>
        <mxCell id="TyVjdNYPD2JeJ7O1mxKk-18" style="edgeStyle=orthogonalEdgeStyle;rounded=0;orthogonalLoop=1;jettySize=auto;html=1;exitX=0.75;exitY=1;exitDx=0;exitDy=0;entryX=0.75;entryY=0;entryDx=0;entryDy=0;fontFamily=Helvetica;fontSize=24;jumpStyle=gap;" parent="1" source="TyVjdNYPD2JeJ7O1mxKk-3" target="TyVjdNYPD2JeJ7O1mxKk-5" edge="1">
          <mxGeometry relative="1" as="geometry" />
        </mxCell>
        <mxCell id="TyVjdNYPD2JeJ7O1mxKk-19" style="edgeStyle=orthogonalEdgeStyle;rounded=0;orthogonalLoop=1;jettySize=auto;html=1;exitX=0.75;exitY=1;exitDx=0;exitDy=0;entryX=0.75;entryY=0;entryDx=0;entryDy=0;fontFamily=Helvetica;fontSize=24;jumpStyle=gap;" parent="1" source="TyVjdNYPD2JeJ7O1mxKk-3" target="TyVjdNYPD2JeJ7O1mxKk-6" edge="1">
          <mxGeometry relative="1" as="geometry" />
        </mxCell>
        <mxCell id="TyVjdNYPD2JeJ7O1mxKk-3" value="SWAP" style="rounded=1;whiteSpace=wrap;html=1;fontFamily=Helvetica;fontSize=24;fillColor=#dae8fc;strokeColor=#6c8ebf;" parent="1" vertex="1">
          <mxGeometry x="340" y="320" width="160" height="80" as="geometry" />
        </mxCell>
        <mxCell id="TyVjdNYPD2JeJ7O1mxKk-20" style="edgeStyle=orthogonalEdgeStyle;rounded=0;jumpStyle=gap;orthogonalLoop=1;jettySize=auto;html=1;exitX=0.5;exitY=1;exitDx=0;exitDy=0;entryX=0.75;entryY=1;entryDx=0;entryDy=0;fontFamily=Helvetica;fontSize=24;" parent="1" source="TyVjdNYPD2JeJ7O1mxKk-4" target="TyVjdNYPD2JeJ7O1mxKk-9" edge="1">
          <mxGeometry relative="1" as="geometry" />
        </mxCell>
        <mxCell id="TyVjdNYPD2JeJ7O1mxKk-4" value="&amp;gt;&amp;gt;1" style="rounded=1;whiteSpace=wrap;html=1;fontFamily=Helvetica;fontSize=24;fillColor=#f8cecc;strokeColor=#b85450;" parent="1" vertex="1">
          <mxGeometry x="160" y="480" width="80" height="80" as="geometry" />
        </mxCell>
        <mxCell id="TyVjdNYPD2JeJ7O1mxKk-21" style="edgeStyle=orthogonalEdgeStyle;rounded=0;jumpStyle=gap;orthogonalLoop=1;jettySize=auto;html=1;exitX=0.5;exitY=1;exitDx=0;exitDy=0;entryX=0.226;entryY=0.993;entryDx=0;entryDy=0;entryPerimeter=0;fontFamily=Helvetica;fontSize=24;" parent="1" source="TyVjdNYPD2JeJ7O1mxKk-5" target="TyVjdNYPD2JeJ7O1mxKk-9" edge="1">
          <mxGeometry relative="1" as="geometry" />
        </mxCell>
        <mxCell id="TyVjdNYPD2JeJ7O1mxKk-5" value="SUB" style="rounded=1;whiteSpace=wrap;html=1;fontFamily=Helvetica;fontSize=24;fillColor=#f8cecc;strokeColor=#b85450;" parent="1" vertex="1">
          <mxGeometry x="280" y="480" width="120" height="80" as="geometry" />
        </mxCell>
        <mxCell id="TyVjdNYPD2JeJ7O1mxKk-22" style="edgeStyle=orthogonalEdgeStyle;rounded=0;jumpStyle=gap;orthogonalLoop=1;jettySize=auto;html=1;exitX=0.5;exitY=1;exitDx=0;exitDy=0;entryX=0.75;entryY=1;entryDx=0;entryDy=0;fontFamily=Helvetica;fontSize=24;" parent="1" source="TyVjdNYPD2JeJ7O1mxKk-6" target="TyVjdNYPD2JeJ7O1mxKk-10" edge="1">
          <mxGeometry relative="1" as="geometry" />
        </mxCell>
        <mxCell id="TyVjdNYPD2JeJ7O1mxKk-6" value="&amp;gt;=" style="rounded=1;whiteSpace=wrap;html=1;fontFamily=Helvetica;fontSize=24;fillColor=#f8cecc;strokeColor=#b85450;" parent="1" vertex="1">
          <mxGeometry x="440" y="480" width="120" height="80" as="geometry" />
        </mxCell>
        <mxCell id="TyVjdNYPD2JeJ7O1mxKk-23" style="edgeStyle=orthogonalEdgeStyle;rounded=0;jumpStyle=gap;orthogonalLoop=1;jettySize=auto;html=1;exitX=0.5;exitY=1;exitDx=0;exitDy=0;fontFamily=Helvetica;fontSize=24;entryX=0.5;entryY=1;entryDx=0;entryDy=0;" parent="1" source="TyVjdNYPD2JeJ7O1mxKk-8" target="TyVjdNYPD2JeJ7O1mxKk-10" edge="1">
          <mxGeometry relative="1" as="geometry" />
        </mxCell>
        <mxCell id="TyVjdNYPD2JeJ7O1mxKk-8" value="&amp;gt;=0" style="rounded=1;whiteSpace=wrap;html=1;fontFamily=Helvetica;fontSize=24;fillColor=#f8cecc;strokeColor=#b85450;" parent="1" vertex="1">
          <mxGeometry x="600" y="480" width="80" height="80" as="geometry" />
        </mxCell>
        <mxCell id="TyVjdNYPD2JeJ7O1mxKk-24" value="&lt;div&gt;DRES&lt;/div&gt;" style="edgeStyle=orthogonalEdgeStyle;rounded=0;jumpStyle=gap;orthogonalLoop=1;jettySize=auto;html=1;exitX=0.5;exitY=0;exitDx=0;exitDy=0;fontFamily=Helvetica;fontSize=12;entryX=0.5;entryY=0;entryDx=0;entryDy=0;" parent="1" source="TyVjdNYPD2JeJ7O1mxKk-9" target="TyVjdNYPD2JeJ7O1mxKk-1" edge="1">
          <mxGeometry relative="1" as="geometry">
            <mxPoint x="120" y="91.66666666666666" as="targetPoint" />
            <Array as="points">
              <mxPoint x="270" y="720" />
              <mxPoint x="120" y="720" />
              <mxPoint x="120" y="180" />
              <mxPoint x="280" y="180" />
            </Array>
          </mxGeometry>
        </mxCell>
        <mxCell id="TyVjdNYPD2JeJ7O1mxKk-9" value="" style="shape=trapezoid;perimeter=trapezoidPerimeter;whiteSpace=wrap;html=1;fixedSize=1;fontFamily=Helvetica;fontSize=24;fillColor=#dae8fc;strokeColor=#6c8ebf;rounded=1;rotation=-180;" parent="1" vertex="1">
          <mxGeometry x="190" y="640" width="160" height="60" as="geometry" />
        </mxCell>
        <mxCell id="TyVjdNYPD2JeJ7O1mxKk-32" value="CRES" style="edgeStyle=orthogonalEdgeStyle;rounded=0;jumpStyle=gap;orthogonalLoop=1;jettySize=auto;html=1;exitX=0.5;exitY=0;exitDx=0;exitDy=0;fontFamily=Helvetica;fontSize=12;" parent="1" source="TyVjdNYPD2JeJ7O1mxKk-10" edge="1">
          <mxGeometry relative="1" as="geometry">
            <mxPoint x="670" y="720" as="targetPoint" />
          </mxGeometry>
        </mxCell>
        <mxCell id="TyVjdNYPD2JeJ7O1mxKk-10" value="" style="shape=trapezoid;perimeter=trapezoidPerimeter;whiteSpace=wrap;html=1;fixedSize=1;fontFamily=Helvetica;fontSize=24;fillColor=#dae8fc;strokeColor=#6c8ebf;rounded=1;rotation=-180;" parent="1" vertex="1">
          <mxGeometry x="490" y="640" width="250" height="60" as="geometry" />
        </mxCell>
        <mxCell id="TyVjdNYPD2JeJ7O1mxKk-25" value="" style="endArrow=classic;html=1;rounded=0;fontFamily=Helvetica;fontSize=24;jumpStyle=gap;edgeStyle=orthogonalEdgeStyle;entryX=0.5;entryY=0;entryDx=0;entryDy=0;" parent="1" target="TyVjdNYPD2JeJ7O1mxKk-2" edge="1">
          <mxGeometry width="50" height="50" relative="1" as="geometry">
            <mxPoint x="280" y="180" as="sourcePoint" />
            <mxPoint x="330" y="130" as="targetPoint" />
          </mxGeometry>
        </mxCell>
        <mxCell id="TyVjdNYPD2JeJ7O1mxKk-26" value="WA" style="endArrow=classic;html=1;rounded=0;fontFamily=Helvetica;fontSize=12;jumpStyle=gap;entryX=1;entryY=0.5;entryDx=0;entryDy=0;edgeStyle=orthogonalEdgeStyle;" parent="1" target="TyVjdNYPD2JeJ7O1mxKk-1" edge="1">
          <mxGeometry width="50" height="50" relative="1" as="geometry">
            <mxPoint x="410" y="220" as="sourcePoint" />
            <mxPoint x="425" y="210" as="targetPoint" />
          </mxGeometry>
        </mxCell>
        <mxCell id="TyVjdNYPD2JeJ7O1mxKk-27" value="WB" style="endArrow=classic;html=1;rounded=0;fontFamily=Helvetica;fontSize=12;jumpStyle=gap;entryX=1;entryY=0.5;entryDx=0;entryDy=0;edgeStyle=orthogonalEdgeStyle;" parent="1" target="TyVjdNYPD2JeJ7O1mxKk-2" edge="1">
          <mxGeometry width="50" height="50" relative="1" as="geometry">
            <mxPoint x="690" y="220" as="sourcePoint" />
            <mxPoint x="645" y="220" as="targetPoint" />
          </mxGeometry>
        </mxCell>
        <mxCell id="TyVjdNYPD2JeJ7O1mxKk-28" value="SW" style="endArrow=classic;html=1;rounded=0;fontFamily=Helvetica;fontSize=12;jumpStyle=gap;edgeStyle=orthogonalEdgeStyle;entryX=1;entryY=0.5;entryDx=0;entryDy=0;" parent="1" target="TyVjdNYPD2JeJ7O1mxKk-3" edge="1">
          <mxGeometry width="50" height="50" relative="1" as="geometry">
            <mxPoint x="550" y="360" as="sourcePoint" />
            <mxPoint x="530" y="350" as="targetPoint" />
          </mxGeometry>
        </mxCell>
        <mxCell id="TyVjdNYPD2JeJ7O1mxKk-29" value="OP" style="endArrow=classic;html=1;rounded=0;fontFamily=Helvetica;fontSize=12;jumpStyle=gap;entryX=0;entryY=0.5;entryDx=0;entryDy=0;edgeStyle=orthogonalEdgeStyle;" parent="1" target="TyVjdNYPD2JeJ7O1mxKk-9" edge="1">
          <mxGeometry width="50" height="50" relative="1" as="geometry">
            <mxPoint x="390" y="670" as="sourcePoint" />
            <mxPoint x="340" y="672" as="targetPoint" />
          </mxGeometry>
        </mxCell>
        <mxCell id="TyVjdNYPD2JeJ7O1mxKk-30" value="OP" style="endArrow=classic;html=1;rounded=0;fontFamily=Helvetica;fontSize=12;jumpStyle=gap;edgeStyle=orthogonalEdgeStyle;entryX=0;entryY=0.5;entryDx=0;entryDy=0;" parent="1" target="TyVjdNYPD2JeJ7O1mxKk-10" edge="1">
          <mxGeometry width="50" height="50" relative="1" as="geometry">
            <mxPoint x="780" y="670" as="sourcePoint" />
            <mxPoint x="680" y="660" as="targetPoint" />
            <Array as="points">
              <mxPoint x="760" y="670" />
              <mxPoint x="760" y="670" />
            </Array>
          </mxGeometry>
        </mxCell>
        <mxCell id="ZY9HksnKgKYc-fsCFfWy-5" style="edgeStyle=orthogonalEdgeStyle;rounded=0;orthogonalLoop=1;jettySize=auto;html=1;exitX=0.5;exitY=1;exitDx=0;exitDy=0;entryX=0.25;entryY=1;entryDx=0;entryDy=0;" edge="1" parent="1" source="ZY9HksnKgKYc-fsCFfWy-2" target="TyVjdNYPD2JeJ7O1mxKk-10">
          <mxGeometry relative="1" as="geometry" />
        </mxCell>
        <mxCell id="ZY9HksnKgKYc-fsCFfWy-2" value="%2" style="rounded=1;whiteSpace=wrap;html=1;fontFamily=Helvetica;fontSize=24;fillColor=#f8cecc;strokeColor=#b85450;" vertex="1" parent="1">
          <mxGeometry x="720" y="480" width="80" height="80" as="geometry" />
        </mxCell>
        <mxCell id="ZY9HksnKgKYc-fsCFfWy-4" style="edgeStyle=orthogonalEdgeStyle;rounded=0;orthogonalLoop=1;jettySize=auto;html=1;exitX=0.25;exitY=1;exitDx=0;exitDy=0;fontFamily=Helvetica;fontSize=24;jumpStyle=gap;entryX=0.5;entryY=0;entryDx=0;entryDy=0;" edge="1" parent="1" source="TyVjdNYPD2JeJ7O1mxKk-3" target="ZY9HksnKgKYc-fsCFfWy-2">
          <mxGeometry relative="1" as="geometry">
            <Array as="points">
              <mxPoint x="380" y="420" />
              <mxPoint x="760" y="420" />
            </Array>
            <mxPoint x="390" y="410" as="sourcePoint" />
            <mxPoint x="650" y="490" as="targetPoint" />
          </mxGeometry>
        </mxCell>
      </root>
    </mxGraphModel>
  </diagram>
  <diagram id="qeUSGbnr4tcJRhgRi6jW" name="Control">
    <mxGraphModel dx="1354" dy="719" grid="1" gridSize="10" guides="1" tooltips="1" connect="1" arrows="1" fold="1" page="1" pageScale="1" pageWidth="850" pageHeight="1100" math="0" shadow="0">
      <root>
        <mxCell id="0" />
        <mxCell id="1" parent="0" />
        <mxCell id="3vuRtUNNqNDKdfC7t2OE-2" style="edgeStyle=orthogonalEdgeStyle;rounded=0;jumpStyle=gap;orthogonalLoop=1;jettySize=auto;html=1;entryX=0;entryY=0.5;entryDx=0;entryDy=0;fontFamily=Helvetica;fontSize=12;strokeWidth=3;exitX=1;exitY=0.5;exitDx=0;exitDy=0;" parent="1" source="cozuYUxAqP75AMEVPcSC-1" target="3vuRtUNNqNDKdfC7t2OE-1" edge="1">
          <mxGeometry relative="1" as="geometry">
            <Array as="points">
              <mxPoint x="380" y="460" />
              <mxPoint x="380" y="360" />
              <mxPoint x="40" y="360" />
              <mxPoint x="40" y="500" />
            </Array>
            <mxPoint x="360" y="450" as="sourcePoint" />
          </mxGeometry>
        </mxCell>
        <mxCell id="aFxdaWtmMwQVdhrede1k-2" value="&lt;div&gt;j_addr&lt;/div&gt;&lt;div&gt;4&lt;br&gt;&lt;/div&gt;" style="edgeStyle=orthogonalEdgeStyle;rounded=0;jumpStyle=gap;orthogonalLoop=1;jettySize=auto;html=1;exitX=1;exitY=0.25;exitDx=0;exitDy=0;entryX=0.25;entryY=1;entryDx=0;entryDy=0;fontFamily=Helvetica;fontSize=12;strokeWidth=3;" parent="1" source="ePrjGZUwO1fy7k6nw9_I-1" target="I0Ty3KdxlO7eFTOE3xIg-1" edge="1">
          <mxGeometry relative="1" as="geometry">
            <Array as="points">
              <mxPoint x="660" y="390" />
              <mxPoint x="660" y="300" />
              <mxPoint x="160" y="300" />
              <mxPoint x="160" y="420" />
            </Array>
          </mxGeometry>
        </mxCell>
        <mxCell id="aFxdaWtmMwQVdhrede1k-3" value="&lt;div&gt;CTRL&lt;/div&gt;&lt;div&gt;5&lt;br&gt;&lt;/div&gt;" style="edgeStyle=orthogonalEdgeStyle;rounded=0;jumpStyle=gap;orthogonalLoop=1;jettySize=auto;html=1;exitX=1;exitY=0.5;exitDx=0;exitDy=0;fontFamily=Helvetica;fontSize=12;strokeWidth=3;" parent="1" source="ePrjGZUwO1fy7k6nw9_I-1" edge="1">
          <mxGeometry relative="1" as="geometry">
            <mxPoint x="820" y="460" as="targetPoint" />
            <Array as="points">
              <mxPoint x="820" y="460" />
            </Array>
          </mxGeometry>
        </mxCell>
        <mxCell id="7XHMgeXKYdttdrYe1Hyt-1" value="JC" style="edgeStyle=orthogonalEdgeStyle;rounded=0;jumpStyle=gap;orthogonalLoop=1;jettySize=auto;html=1;exitX=1;exitY=0.657;exitDx=0;exitDy=0;fontFamily=Helvetica;fontSize=12;strokeWidth=1;entryX=0;entryY=0.75;entryDx=0;entryDy=0;entryPerimeter=0;exitPerimeter=0;" parent="1" source="ePrjGZUwO1fy7k6nw9_I-1" target="klS852NAXm99KKfQu4b7-2" edge="1">
          <mxGeometry relative="1" as="geometry">
            <mxPoint x="360" y="720" as="targetPoint" />
            <Array as="points">
              <mxPoint x="680" y="504" />
              <mxPoint x="680" y="780" />
              <mxPoint x="220" y="780" />
            </Array>
          </mxGeometry>
        </mxCell>
        <mxCell id="989UBpNFX59s3NB7DkNa-3" value="JU" style="edgeStyle=orthogonalEdgeStyle;rounded=0;orthogonalLoop=1;jettySize=auto;html=1;exitX=1;exitY=0.75;exitDx=0;exitDy=0;entryX=0.175;entryY=0.75;entryDx=0;entryDy=0;entryPerimeter=0;fontSize=12;" edge="1" parent="1" source="ePrjGZUwO1fy7k6nw9_I-1" target="989UBpNFX59s3NB7DkNa-1">
          <mxGeometry relative="1" as="geometry">
            <Array as="points">
              <mxPoint x="660" y="530" />
              <mxPoint x="660" y="660" />
              <mxPoint x="240" y="660" />
            </Array>
          </mxGeometry>
        </mxCell>
        <mxCell id="ePrjGZUwO1fy7k6nw9_I-1" value="&lt;div&gt;ROM&lt;/div&gt;&lt;div&gt;16 X 11b&lt;br&gt;&lt;/div&gt;" style="rounded=1;whiteSpace=wrap;html=1;fontFamily=Helvetica;fontSize=24;fillColor=#fff2cc;strokeColor=#d6b656;" parent="1" vertex="1">
          <mxGeometry x="480" y="320" width="160" height="280" as="geometry" />
        </mxCell>
        <mxCell id="aFxdaWtmMwQVdhrede1k-1" value="&lt;div&gt;ADDR&lt;/div&gt;&lt;div&gt;4&lt;br&gt;&lt;/div&gt;" style="edgeStyle=orthogonalEdgeStyle;rounded=0;jumpStyle=gap;orthogonalLoop=1;jettySize=auto;html=1;exitX=1;exitY=0.5;exitDx=0;exitDy=0;fontFamily=Helvetica;fontSize=12;strokeWidth=3;" parent="1" source="cozuYUxAqP75AMEVPcSC-1" target="ePrjGZUwO1fy7k6nw9_I-1" edge="1">
          <mxGeometry relative="1" as="geometry" />
        </mxCell>
        <mxCell id="I0Ty3KdxlO7eFTOE3xIg-1" value="&lt;div&gt;1&lt;/div&gt;&lt;div&gt;&lt;br&gt;&lt;/div&gt;&lt;div&gt;&lt;br&gt;&lt;/div&gt;&lt;div&gt;0&lt;/div&gt;" style="shape=trapezoid;perimeter=trapezoidPerimeter;whiteSpace=wrap;html=1;fixedSize=1;fontFamily=Helvetica;fontSize=24;fillColor=#dae8fc;strokeColor=#6c8ebf;rounded=1;rotation=90;horizontal=0;" parent="1" vertex="1">
          <mxGeometry x="140" y="432" width="160" height="56" as="geometry" />
        </mxCell>
        <mxCell id="klS852NAXm99KKfQu4b7-1" style="edgeStyle=orthogonalEdgeStyle;rounded=0;jumpStyle=gap;orthogonalLoop=1;jettySize=auto;html=1;exitX=1;exitY=0.5;exitDx=0;exitDy=0;fontFamily=Helvetica;fontSize=12;strokeWidth=3;entryX=0.75;entryY=1;entryDx=0;entryDy=0;" parent="1" source="3vuRtUNNqNDKdfC7t2OE-1" target="I0Ty3KdxlO7eFTOE3xIg-1" edge="1">
          <mxGeometry relative="1" as="geometry" />
        </mxCell>
        <mxCell id="3vuRtUNNqNDKdfC7t2OE-1" value="++" style="rounded=1;whiteSpace=wrap;html=1;fontFamily=Helvetica;fontSize=24;fillColor=#f8cecc;strokeColor=#b85450;" parent="1" vertex="1">
          <mxGeometry x="70" y="460" width="80" height="80" as="geometry" />
        </mxCell>
        <mxCell id="klS852NAXm99KKfQu4b7-4" style="edgeStyle=orthogonalEdgeStyle;rounded=0;jumpStyle=gap;orthogonalLoop=1;jettySize=auto;html=1;exitX=1;exitY=0.5;exitDx=0;exitDy=0;exitPerimeter=0;fontFamily=Helvetica;fontSize=12;strokeWidth=1;entryX=0.175;entryY=0.25;entryDx=0;entryDy=0;entryPerimeter=0;" parent="1" source="klS852NAXm99KKfQu4b7-2" target="989UBpNFX59s3NB7DkNa-1" edge="1">
          <mxGeometry relative="1" as="geometry">
            <mxPoint x="200" y="630" as="targetPoint" />
          </mxGeometry>
        </mxCell>
        <mxCell id="klS852NAXm99KKfQu4b7-2" value="" style="shape=or;whiteSpace=wrap;html=1;rounded=1;fontFamily=Helvetica;fontSize=12;fillColor=#f8cecc;strokeColor=#b85450;rotation=-90;" parent="1" vertex="1">
          <mxGeometry x="170" y="670" width="60" height="80" as="geometry" />
        </mxCell>
        <mxCell id="klS852NAXm99KKfQu4b7-3" value="CRES" style="endArrow=classic;html=1;rounded=0;fontFamily=Helvetica;fontSize=12;strokeWidth=1;jumpStyle=gap;edgeStyle=orthogonalEdgeStyle;entryX=0;entryY=0.25;entryDx=0;entryDy=0;entryPerimeter=0;" parent="1" target="klS852NAXm99KKfQu4b7-2" edge="1">
          <mxGeometry width="50" height="50" relative="1" as="geometry">
            <mxPoint x="40" y="780" as="sourcePoint" />
            <mxPoint x="180" y="740" as="targetPoint" />
          </mxGeometry>
        </mxCell>
        <mxCell id="989UBpNFX59s3NB7DkNa-2" style="edgeStyle=orthogonalEdgeStyle;rounded=0;orthogonalLoop=1;jettySize=auto;html=1;exitX=1;exitY=0.5;exitDx=0;exitDy=0;exitPerimeter=0;entryX=1;entryY=0.5;entryDx=0;entryDy=0;" edge="1" parent="1" source="989UBpNFX59s3NB7DkNa-1" target="I0Ty3KdxlO7eFTOE3xIg-1">
          <mxGeometry relative="1" as="geometry" />
        </mxCell>
        <mxCell id="989UBpNFX59s3NB7DkNa-1" value="" style="shape=xor;whiteSpace=wrap;html=1;labelBorderColor=none;direction=north;fillColor=#f8cecc;strokeColor=#b85450;" vertex="1" parent="1">
          <mxGeometry x="180" y="580" width="80" height="60" as="geometry" />
        </mxCell>
        <mxCell id="cozuYUxAqP75AMEVPcSC-1" value="&lt;div style=&quot;font-size: 24px&quot;&gt;&lt;p style=&quot;font-size: 24px;&quot;&gt;ADDR&lt;br style=&quot;font-size: 24px;&quot;&gt;&lt;/p&gt;&lt;/div&gt;" style="rounded=1;whiteSpace=wrap;html=1;fillColor=#d5e8d4;strokeColor=#82b366;fontSize=24;fontFamily=Helvetica;horizontal=0;" vertex="1" parent="1">
          <mxGeometry x="319" y="400" width="40" height="120" as="geometry" />
        </mxCell>
        <mxCell id="cozuYUxAqP75AMEVPcSC-3" style="edgeStyle=orthogonalEdgeStyle;rounded=0;jumpStyle=gap;orthogonalLoop=1;jettySize=auto;html=1;exitX=0.5;exitY=0;exitDx=0;exitDy=0;fontFamily=Helvetica;fontSize=12;strokeWidth=3;entryX=0;entryY=0.5;entryDx=0;entryDy=0;" edge="1" parent="1" source="I0Ty3KdxlO7eFTOE3xIg-1" target="cozuYUxAqP75AMEVPcSC-1">
          <mxGeometry relative="1" as="geometry">
            <mxPoint x="250" y="460" as="sourcePoint" />
            <mxPoint x="280" y="460" as="targetPoint" />
          </mxGeometry>
        </mxCell>
      </root>
    </mxGraphModel>
  </diagram>
</mxfile>
